<svg id="Layer_1" data-name="Layer 1" xmlns="http://www.w3.org/2000/svg" viewBox="0 0 1272.94 714.61"><defs><style>.cls-1{fill:#e6e6e6;}</style></defs><title>bg1</title><path class="cls-1" d="M121,133h76.93L313.06,458.41H239.33l-21.48-66.89H98L76,458.41H4.83Zm-4.49,202.44h83.34l-41.1-128Z" transform="translate(-4.59 -133)"/><path class="cls-1" d="M356.72,133H428L557.17,359.9V133h63.36V458.41h-68L420.08,227.52V458.41H356.72Z" transform="translate(-4.59 -133)"/><path class="cls-1" d="M875,140.06q34.25,11.26,55.46,41.29a144.86,144.86,0,0,1,23.2,52.54,252.34,252.34,0,0,1,6.18,53.87q0,64.9-26.07,109.94-35.34,60.72-109.14,60.71H684.34V133h140.3Q854.91,133.45,875,140.06ZM750.35,189.52V401.89h62.79q48.21,0,67.22-47.46,10.39-26.06,10.39-62,0-49.67-15.58-76.27t-62-26.6Z" transform="translate(-4.59 -133)"/><path class="cls-1" d="M1219.39,141.39a80.31,80.31,0,0,1,30.46,22.74,101.31,101.31,0,0,1,16.36,27.37q6,15,6,34.22,0,23.19-11.7,45.59T1221.91,303q22.52,9.06,31.9,25.72t9.38,50.89v21.85q0,22.31,1.79,30.25,2.7,12.58,12.56,18.54v8.17h-75.06q-3.11-10.82-4.42-17.44a161,161,0,0,1-2.87-28l-.44-30.24q-.42-31.12-10.76-41.51t-38.73-10.37h-66.41v127.6H1012.4V133H1168Q1201.42,133.66,1219.39,141.39Zm-140.54,48.13v87.42H1152q21.79,0,32.7-5.3Q1204,262.37,1204,235q0-29.58-18.66-39.73-10.48-5.74-31.45-5.74Z" transform="translate(-4.59 -133)"/><path class="cls-1" d="M217,513.15h77L185.18,716.54v122h-68v-122L4.59,513.15H84.73l67.56,141.73Z" transform="translate(-4.59 -133)"/><path class="cls-1" d="M583.45,809.64q-36.87,38-106.63,38t-106.64-38q-49.46-46.59-49.45-134.23,0-89.42,49.45-134.23,36.87-38,106.64-38t106.63,38Q632.67,586,632.68,675.41,632.68,763.06,583.45,809.64ZM541,760.18q23.73-29.79,23.73-84.77,0-54.75-23.73-84.66t-64.13-29.92q-40.41,0-64.47,29.8t-24.06,84.78q0,55,24.06,84.77T476.82,790Q517.22,790,541,760.18Z" transform="translate(-4.59 -133)"/><path class="cls-1" d="M735.25,738.11q3.15,22.3,12.4,33.33,16.9,20.1,57.93,20.09,24.57,0,39.89-5.29,29.09-10.15,29.08-37.76,0-16.11-14.24-24.94-14.25-8.61-45.18-15.24l-35.23-7.72q-51.95-11.48-71.36-25-32.91-22.51-32.9-70.42,0-43.73,32.18-72.64t94.54-28.92q52.07,0,88.83,27.27t38.56,79.14H864.4q-1.81-29.35-26.26-41.72-16.29-8.18-40.51-8.17-26.93,0-43,10.6t-16.07,29.58q0,17.45,15.84,26,10.19,5.75,43.24,13.47l57.1,13.46Q892.29,662.17,911,677q29.09,23,29.09,66.46,0,44.6-34.48,74.06T808.24,847q-64.26,0-101.08-29t-36.82-79.81Z" transform="translate(-4.59 -133)"/><path class="cls-1" d="M1084.23,513.15h76.93l115.13,325.41h-73.73l-21.48-66.9H1061.25l-22.06,66.9H968.06Zm-4.49,202.44h83.35L1122,587.54Z" transform="translate(-4.59 -133)"/></svg>